<?xml version="1.0" standalone="no"?>
<!DOCTYPE svg PUBLIC "-//W3C//DTD SVG 20010904//EN"
 "http://www.w3.org/TR/2001/REC-SVG-20010904/DTD/svg10.dtd">
<svg version="1.0" xmlns="http://www.w3.org/2000/svg"
 width="696.000000pt" height="513.000000pt" viewBox="0 0 696.000000 513.000000"
 preserveAspectRatio="xMidYMid meet">
<metadata>
Created by potrace 1.16, written by Peter Selinger 2001-2019
</metadata>
<g transform="translate(0.000000,513.000000) scale(0.100000,-0.100000)"
fill="#000000" stroke="none">
<path d="M3636 4862 c-30 -49 -35 -95 -26 -230 18 -251 40 -556 45 -612 32
-399 23 -1571 -16 -2170 -5 -85 -19 -258 -30 -385 -11 -126 -26 -315 -35 -420
-18 -226 -32 -265 -104 -302 -30 -14 -154 -43 -370 -84 -342 -64 -404 -83
-398 -121 2 -13 13 -24 29 -29 28 -7 518 65 676 100 50 11 109 29 131 40 73
37 125 120 136 216 37 320 48 447 61 730 20 440 23 498 42 865 19 374 21 1084
4 1405 -26 488 -63 891 -86 933 -25 47 -52 76 -59 64z"/>
<path d="M1115 4339 c-223 -32 -446 -144 -691 -344 -129 -107 -159 -142 -206
-242 -67 -143 -61 -211 20 -246 51 -23 581 -152 727 -178 246 -43 639 -24 850
42 220 68 412 223 540 435 63 104 45 146 -90 226 -216 128 -497 233 -768 289
-113 23 -291 31 -382 18z m368 -156 c121 -38 213 -165 211 -293 -1 -109 -32
-163 -179 -306 -79 -78 -134 -123 -151 -127 -59 -11 -124 21 -199 97 -113 113
-171 254 -145 353 33 134 147 251 280 287 59 16 107 13 183 -11z m-449 -10
c-97 -148 -129 -230 -128 -328 2 -102 46 -201 161 -359 23 -33 41 -61 40 -63
-2 -1 -183 37 -403 86 -334 73 -400 90 -402 105 -7 36 67 163 141 242 129 139
302 249 493 313 113 39 122 39 98 4z m1001 -153 c127 -57 234 -107 239 -111
11 -10 -71 -133 -136 -204 -130 -143 -320 -238 -538 -270 l-45 -7 41 43 c213
226 262 403 165 599 -33 66 -27 88 18 66 14 -7 130 -59 256 -116z"/>
<path d="M1275 4031 c-92 -42 -120 -122 -70 -206 31 -54 75 -75 155 -75 59 0
64 2 101 39 37 37 39 42 39 101 0 76 -20 113 -75 140 -51 25 -98 25 -150 1z"/>
<path d="M4743 3773 c-28 -5 -28 -6 -2 -53 12 -21 38 -47 58 -58 22 -12 190
-54 434 -106 l398 -85 253 59 c349 81 330 75 365 119 17 21 31 41 31 44 0 3
-24 8 -52 12 -44 5 -69 1 -143 -24 -135 -45 -258 -64 -425 -64 -258 -1 -413
24 -673 108 -162 52 -192 58 -244 48z"/>
<path d="M4670 3564 c-88 -48 -163 -96 -172 -109 -24 -33 4 -75 49 -75 29 0
219 117 242 149 l21 29 -34 21 c-18 12 -35 21 -37 21 -2 0 -33 -16 -69 -36z"/>
<path d="M6257 3508 c-5 -38 -3 -45 21 -65 42 -34 177 -103 201 -103 38 0 81
28 81 53 0 19 -20 32 -141 87 -78 36 -145 66 -149 68 -4 1 -10 -17 -13 -40z"/>
<path d="M4988 3457 c-14 -7 -44 -34 -65 -62 -147 -189 -164 -236 -97 -269 20
-9 37 -16 38 -14 1 2 15 23 31 48 15 24 59 96 97 158 66 109 68 115 52 133
-20 22 -20 22 -56 6z"/>
<path d="M5986 3404 c-3 -9 -6 -30 -6 -47 0 -58 195 -297 241 -297 5 0 9 26 9
58 0 53 -4 64 -42 119 -81 114 -123 162 -152 172 -38 14 -43 14 -50 -5z"/>
<path d="M5283 3363 c-26 -23 -39 -50 -67 -141 -48 -154 -51 -173 -32 -211 16
-30 18 -31 45 -17 15 8 32 21 38 28 12 14 79 220 89 272 6 33 -17 96 -34 96
-4 0 -22 -12 -39 -27z"/>
<path d="M5670 3309 l-32 -44 6 -100 c5 -85 10 -107 34 -144 15 -24 32 -44 37
-44 6 1 18 22 28 48 25 67 14 237 -18 291 l-22 37 -33 -44z"/>
</g>
</svg>
