<svg xmlns="http://www.w3.org/2000/svg" width="1119.859" height="719.625" viewBox="0 0 1119.859 719.625">
  <path id="Map" d="M2997.5,1052.367l12.1-29.731v-26.87l11.149-21.036L2997.5,946.272l-22.767-7.531-20.638,7.531V923.277c0-5.749-36.821,0-36.821,0l-7.068-23.5,16.759-10.4V877.019l-16.759-18.5v-26.2l-19.174-13.277L2910.2,792.66h16.759l17.846-6.218-10.689-21.123-7.157-21.641,17.846,10.116,29.92-24.019v-51.58l55.833-14.817h29.63V611.7s3.375-19.179,40.322-8.929,39.909-14.87,39.909-14.87L3123.2,551.708l27.944-53.989,44.055,11.158,22.456,29.2v-29.2h39.067l30.314,6.281,26.362-6.281s64.776-1.784,77.825-11.158-25.626-26.335-25.626-26.335V430.822h-52.2l-26.362-17.287H3171.679V396.422s15.793-5.505,10.659-7.34-31.193,0-31.193,0-16.967-13.043-27.944-13.043-15.965,13.043-15.965,13.043h-37.968l-29.8,7.34-18.726,17.113L2997.5,389.081l-43.4,7.34s-2.369,18.948-19.972,17.113-50.442-24.454-50.442-24.454l-23.643,7.34-57.563,17.113-22.5-17.113V355.841l-26.812-21.852-13.552,21.852v20.2l20.013,37.5H2719.48s8.036-15.8,0-30.225-32.143-27.469-32.143-27.469,14.032,19.159,0,27.469c-10.454,6.191-49.373,6.037-49.373,6.037l-6.755-.266,28.414,24.454-39.431,17.287-26.849,40.562H2568.6l11.047-31.877s-31.032-9.392-45.4,0,4.142,28.177-12.059,37.569-52.745,0-52.745,0l19.479-46.254s-19.813,8.685-32.964,8.685-19.641-8.685-19.641-8.685l-61.525,15.072-67.176,76.773s32.9-6.831,27.561,6.08-48.92,45.564-48.92,45.564l-11.032,28.456,21.6,8.929-10.567,20.763,10.567,19.661s24.527-19.618,27.225,11.259-16.433,112.251-16.433,112.251l27.561,17.031s10.359,15.653,13.813,8.818,0-36.159,0-36.159l25.8,21.123,61.525,32.6h42.4l19-8.9,24.471,15.511v17.588l71.154-24.2,26.849,13.277,27.417-30.845,28.233,17.568,18.671-8.9,24.968,8.9-11.786,39.475,45.464,30.861,34.979,22.716v26.644h26.454s-13.127,29.407,0,35.99,52.507-9.658,52.507-9.658l16.578,30.695,61.132,26.87,9.283,29.731Z" transform="translate(-2274.582 -333.242)" fill="none" stroke="#718096" stroke-width="1" stroke-dasharray="5" opacity="0.546"/>
</svg>
