<?xml version="1.0" standalone="no"?>
<!DOCTYPE svg PUBLIC "-//W3C//DTD SVG 20010904//EN"
 "http://www.w3.org/TR/2001/REC-SVG-20010904/DTD/svg10.dtd">
<svg version="1.0" xmlns="http://www.w3.org/2000/svg"
 width="928.000000pt" height="928.000000pt" viewBox="0 0 928.000000 928.000000"
 preserveAspectRatio="xMidYMid meet">
<metadata>
Created by potrace 1.14, written by Peter Selinger 2001-2017
</metadata>
<g transform="translate(0.000000,928.000000) scale(0.100000,-0.100000)"
fill="#000000" stroke="none">
<path d="M4824 7663 c-22 -55 -24 -215 -5 -438 6 -72 15 -195 21 -275 6 -80
15 -201 20 -270 23 -295 30 -573 30 -1209 0 -958 -21 -1553 -80 -2251 -20
-234 -30 -360 -40 -482 -32 -390 -44 -449 -106 -497 -43 -33 -135 -57 -534
-137 -486 -97 -530 -110 -530 -159 0 -46 34 -57 141 -45 319 36 779 115 909
156 96 30 167 89 209 173 36 72 37 76 61 285 31 275 48 484 64 821 9 171 28
544 43 830 25 476 27 588 28 1325 0 804 -2 862 -40 1400 -18 247 -51 571 -66
658 -12 68 -61 154 -90 160 -12 2 -22 -11 -35 -45z"/>
<path d="M1440 7003 c-247 -43 -523 -179 -815 -402 -201 -153 -296 -265 -359
-420 -77 -190 -51 -262 113 -311 158 -47 709 -179 897 -215 358 -68 939 -28
1230 86 265 103 524 333 651 577 44 84 44 129 1 178 -130 148 -710 397 -1124
482 -206 43 -437 53 -594 25z m489 -199 c113 -28 190 -80 250 -168 53 -77 74
-155 69 -253 -6 -127 -38 -182 -198 -344 -69 -70 -150 -145 -180 -169 -50 -38
-58 -42 -97 -36 -65 9 -121 42 -201 120 -79 76 -144 168 -182 256 -19 44 -24
73 -25 145 0 86 2 95 39 170 66 135 193 243 327 279 72 19 119 19 198 0z
m-567 -36 c-45 -66 -118 -207 -138 -268 -25 -75 -25 -216 0 -290 29 -86 72
-165 157 -291 44 -64 79 -119 79 -121 0 -10 -904 188 -999 219 -57 18 -61 27
-35 89 57 137 230 333 399 452 109 77 294 170 430 217 136 46 143 46 107 -7z
m1289 -167 c167 -76 321 -146 341 -156 l37 -18 -19 -36 c-28 -55 -99 -152
-162 -224 -100 -114 -262 -222 -430 -288 -57 -22 -218 -63 -287 -73 l-44 -7
66 70 c137 146 225 298 255 439 14 70 15 90 3 157 -7 43 -28 114 -47 158 -34
80 -42 117 -26 117 5 0 145 -62 313 -139z"/>
<path d="M1695 6596 c-118 -56 -155 -153 -99 -265 32 -64 79 -97 159 -112 90
-16 140 -5 192 44 30 28 47 55 53 82 11 46 3 139 -15 175 -47 92 -182 127
-290 76z"/>
<path d="M6308 6254 c-23 -7 -22 -16 1 -62 24 -46 66 -87 106 -102 49 -19 290
-75 704 -165 l388 -83 319 74 c451 105 456 106 510 168 24 28 44 54 44 57 0
10 -27 18 -84 25 -44 5 -77 -1 -192 -34 -261 -75 -355 -87 -657 -79 -317 8
-438 29 -802 142 -172 54 -287 74 -337 59z"/>
<path d="M6192 5957 c-196 -108 -234 -147 -198 -202 26 -39 66 -41 138 -4 122
61 255 157 278 199 8 15 2 23 -34 44 -25 14 -51 26 -58 26 -7 0 -64 -28 -126
-63z"/>
<path d="M8340 5908 c-15 -53 -4 -78 52 -119 61 -44 219 -119 251 -119 32 0
77 21 96 44 29 34 6 62 -91 109 -156 76 -270 127 -284 127 -7 0 -18 -19 -24
-42z"/>
<path d="M6645 5831 c-37 -23 -66 -55 -142 -156 -115 -152 -146 -232 -105
-267 16 -15 76 -48 86 -48 4 0 170 268 230 371 31 54 33 80 8 102 -24 22 -40
21 -77 -2z"/>
<path d="M7974 5754 c-20 -80 52 -208 207 -368 111 -113 124 -113 124 -1 l0
80 -59 85 c-117 168 -181 230 -238 230 -21 0 -29 -6 -34 -26z"/>
<path d="M7042 5704 c-44 -44 -52 -61 -85 -164 -42 -131 -67 -226 -67 -252 0
-9 8 -33 17 -53 19 -41 40 -44 89 -15 37 24 51 54 116 268 39 127 41 138 29
181 -7 25 -21 55 -31 65 -19 19 -20 19 -68 -30z"/>
<path d="M7552 5630 l-43 -59 11 -127 c10 -129 24 -175 69 -233 83 -108 127
271 49 427 -13 25 -27 47 -33 49 -5 1 -29 -24 -53 -57z"/>
</g>
</svg>
